<svg width="98" height="120" viewBox="0 0 98 120" fill="none" xmlns="http://www.w3.org/2000/svg">
<g clip-path="url(#clip0_861_1206)">
<path d="M92.7402 101.196H5.25781V107.161H92.7402V101.196Z" fill="#CE0E2D"/>
<path d="M0 63.1203L49 40.9603V0L0 35.2692V63.1203Z" fill="#CE0E2D"/>
<path d="M98 63.1203L49 40.9603V0L98 35.2692V63.1203Z" fill="#8E1537"/>
<path d="M9.70312 115.101C9.70312 114.414 9.22461 114.06 8.44531 114.06H6.85547V116.151H8.47656C9.25586 116.151 9.70312 115.735 9.70312 115.122V115.101ZM9.67188 119.896L8.11328 117.565H6.85547V119.896H5.25586V112.615H8.58008C10.2949 112.615 11.3223 113.521 11.3223 115.019V115.04C11.3223 116.216 10.6895 116.955 9.76367 117.297L11.541 119.898H9.67188V119.896Z" fill="#282160"/>
<path d="M14.2129 119.896V112.615H19.6973V114.039H15.8027V115.517H19.2305V116.943H15.8027V118.471H19.75V119.896H14.2129Z" fill="#282160"/>
<path d="M25.8262 114.487L24.8594 116.849H26.791L25.8262 114.487ZM28.041 119.896L27.3809 118.275H24.3281L23.668 119.896H22.0488L25.1426 112.617H26.6074L29.7012 119.896H28.041Z" fill="#282160"/>
<path d="M32.2676 119.896V112.615H33.8672V118.439H37.4941V119.896H32.2676Z" fill="#282160"/>
<path d="M44.7031 119.896V112.615H50.1875V114.039H46.293V115.517H49.7207V116.943H46.293V118.471H50.2402V119.896H44.7031Z" fill="#282160"/>
<path d="M55.6934 120C54.5918 120 53.4805 119.615 52.6074 118.835L53.5527 117.7C54.207 118.242 54.8926 118.584 55.7246 118.584C56.3789 118.584 56.7734 118.324 56.7734 117.898V117.878C56.7734 117.471 56.5254 117.264 55.3086 116.953C53.8437 116.578 52.8984 116.173 52.8984 114.728V114.708C52.8984 113.386 53.959 112.514 55.4434 112.514C56.5039 112.514 57.4063 112.846 58.1445 113.439L57.3125 114.645C56.668 114.198 56.0352 113.928 55.4219 113.928C54.8086 113.928 54.4863 114.209 54.4863 114.563V114.583C54.4863 115.062 54.7988 115.218 56.0566 115.541C57.5313 115.926 58.3633 116.456 58.3633 117.726V117.745C58.3633 119.19 57.2617 120.002 55.6934 120.002" fill="#282160"/>
<path d="M64.4922 114.092V119.896H62.8926V114.092H60.6797V112.615H66.7051V114.092H64.4922Z" fill="#282160"/>
<path d="M72.5859 114.487L71.6191 116.849H73.5508L72.5859 114.487ZM74.8008 119.896L74.1406 118.275H71.0879L70.4277 119.896H68.8086L71.9023 112.617H73.3672L76.4609 119.896H74.8008Z" fill="#282160"/>
<path d="M82.3203 114.092V119.896H80.7207V114.092H78.5059V112.615H84.5312V114.092H82.3203Z" fill="#282160"/>
<path d="M87.2031 119.896V112.615H92.6875V114.039H88.791V115.517H92.2187V116.943H88.791V118.471H92.7383V119.896H87.2031Z" fill="#282160"/>
<path d="M5.25781 95.7376V65.9053H27.7246V71.7411H11.7656V77.796H25.8086V83.6337H11.7656V89.8998H27.9395V95.7376H5.25781Z" fill="#282160"/>
<path d="M51.4277 76.1747C51.4277 78.6858 49.5996 80.3912 46.4043 80.3912H39.7695V71.8271H46.2793C49.4707 71.8271 51.4277 73.2763 51.4277 76.0906V76.1766V76.1747ZM56.7344 92.4774L54.2012 88.7655L51.6836 85.0829C55.4727 83.6728 58.0664 80.6513 58.0664 75.8344V75.7483C58.0664 69.6113 53.8535 65.9053 46.8301 65.9053H33.2148V93.0876C33.2148 95.0941 34.8398 95.7376 36.8418 95.7376H39.7676V86.1879H44.9141L50.1992 94.0909L50.2891 94.2278C50.9336 95.1391 51.9922 95.7376 53.1914 95.7376H58.959L56.7324 92.4774H56.7344Z" fill="#282160"/>
<path d="M73.0449 83.225L76.9746 73.6147L80.9043 83.225H73.0449ZM80.0586 65.9053H74.0605L64.3965 88.6501L62.2773 93.6371L61.3848 95.7395H65.5723C67.0781 95.7395 68.3691 94.8223 68.9238 93.5198L68.9277 93.5081L70.7266 89.094H83.2344L85.9375 95.7395H92.7422L80.0605 65.9053H80.0586Z" fill="#282160"/>
<path d="M85.8613 68.1564L86.2871 68.1193C86.3066 68.2894 86.3555 68.4302 86.4277 68.5398C86.502 68.6493 86.6152 68.7373 86.7715 68.8057C86.9277 68.8742 87.1016 68.9074 87.2949 68.9074C87.4668 68.9074 87.6191 68.882 87.75 68.8312C87.8828 68.7784 87.9805 68.7099 88.0449 68.6199C88.1094 68.53 88.1406 68.4342 88.1406 68.3285C88.1406 68.2229 88.1094 68.1271 88.0469 68.0489C87.9844 67.9687 87.8828 67.9002 87.7402 67.8474C87.6484 67.8122 87.4473 67.7575 87.1328 67.6812C86.8203 67.6069 86.6016 67.5345 86.4746 67.468C86.3125 67.382 86.1895 67.2764 86.1113 67.1512C86.0313 67.0241 85.9922 66.8833 85.9922 66.7268C85.9922 66.5547 86.041 66.3924 86.1387 66.2438C86.2383 66.0932 86.3789 65.9797 86.5664 65.9015C86.7539 65.8233 86.9629 65.7861 87.1934 65.7861C87.4453 65.7861 87.6699 65.8252 87.8633 65.9074C88.0566 65.9876 88.2031 66.1088 88.3086 66.2672C88.4121 66.4256 88.4688 66.6056 88.4766 66.8051L88.0449 66.8383C88.0215 66.6232 87.9434 66.4589 87.8086 66.3494C87.6738 66.2399 87.4766 66.1851 87.2148 66.1851C86.9531 66.1851 86.7441 66.2359 86.6172 66.3357C86.4922 66.4354 86.4297 66.5567 86.4297 66.6975C86.4297 66.8187 86.4746 66.9204 86.5625 66.9987C86.6504 67.0788 86.877 67.159 87.2422 67.2412C87.6094 67.3253 87.8613 67.3976 87.998 67.4602C88.1953 67.5521 88.3438 67.6675 88.4375 67.8083C88.5313 67.9491 88.5781 68.1115 88.5781 68.2933C88.5781 68.4752 88.5273 68.6454 88.4238 68.8057C88.3203 68.9681 88.1699 69.0913 87.9766 69.1812C87.7813 69.2712 87.5625 69.3162 87.3203 69.3162C87.0117 69.3162 86.752 69.2712 86.543 69.1812C86.334 69.0913 86.1699 68.9563 86.0527 68.7744C85.9336 68.5945 85.8711 68.3892 85.8652 68.1604" fill="#282160"/>
<path d="M89.1777 69.2535V65.8389H89.8574L90.6641 68.2581C90.7383 68.483 90.793 68.6512 90.8281 68.7646C90.8652 68.6394 90.9258 68.4576 91.0078 68.219L91.8262 65.8408H92.4316V69.2555H91.998V66.3982L91.0078 69.2555H90.5996L89.6133 66.3493V69.2555H89.1777V69.2535Z" fill="#282160"/>
</g>
<defs>
<clipPath id="clip0_861_1206">
<rect width="98" height="120" fill="white"/>
</clipPath>
</defs>
</svg>
